<?xml version="1.0" encoding="utf-8"?>
<!-- Generator: Adobe Illustrator 21.0.2, SVG Export Plug-In . SVG Version: 6.00 Build 0)  -->
<svg version="1.1" id="Calque_1" xmlns="http://www.w3.org/2000/svg" xmlns:xlink="http://www.w3.org/1999/xlink" x="0px" y="0px"
	 viewBox="0 0 77 57.3" style="enable-background:new 0 0 77 57.3;" xml:space="preserve">
<g>
	<path d="M76,8.7h-6.4c0-5.5-1.4-8.7-8.2-8.7H6.3C2.8,0,0,2.8,0,6.3v44.2c0,3.7,3,6.8,6.8,6.8c0.4,0,0.8,0,1.2-0.1
		c0.1,0,0.3,0,0.4,0h60.5c4.5,0,8.1-3.6,8.1-8.1V9.7C77,9.2,76.6,8.7,76,8.7z M6.8,55.2C4.2,55.2,2,53,2,50.4V6.3C2,3.9,3.9,2,6.3,2
		h55.1c4.9,0,6.2,1.4,6.2,6.7H13.9c-0.6,0-1,0.4-1,1v39.4C12.9,52.5,10.2,55.2,6.8,55.2z M75,49.1c0,3.4-2.7,6.1-6.1,6.1H12.2
		c1.7-1.5,2.8-3.7,2.8-6.1V10.7h60.1L75,49.1L75,49.1z"/>
	<path d="M48.8,19.6H66c0.6,0,1-0.4,1-1s-0.4-1-1-1H48.8c-0.6,0-1,0.4-1,1S48.2,19.6,48.8,19.6z"/>
	<path d="M66,38.9H24.6c-0.6,0-1,0.4-1,1s0.4,1,1,1H66c0.6,0,1-0.4,1-1S66.5,38.9,66,38.9z"/>
	<path d="M66,46.5H24.6c-0.6,0-1,0.4-1,1s0.4,1,1,1H66c0.6,0,1-0.4,1-1S66.5,46.5,66,46.5z"/>
	<path d="M66,31.3H49c-0.6,0-1,0.4-1,1s0.4,1,1,1h17c0.6,0,1-0.4,1-1S66.5,31.3,66,31.3z"/>
	<path d="M66,24.4H49c-0.6,0-1,0.4-1,1s0.4,1,1,1h17c0.6,0,1-0.4,1-1S66.5,24.4,66,24.4z"/>
	<path d="M24.5,33.3h17.6c0.6,0,1-0.4,1-1V18.5c0-0.6-0.4-1-1-1H24.5c-0.6,0-1,0.4-1,1v13.8C23.5,32.8,23.9,33.3,24.5,33.3z
		 M25.5,19.5h15.6v11.8H25.5V19.5z"/>
</g>
</svg>
