<?xml version="1.0" encoding="utf-8"?>
<!-- Generator: Adobe Illustrator 21.0.2, SVG Export Plug-In . SVG Version: 6.00 Build 0)  -->
<svg version="1.1" id="Calque_1" xmlns="http://www.w3.org/2000/svg" xmlns:xlink="http://www.w3.org/1999/xlink" x="0px" y="0px"
	 viewBox="0 0 57.8 46.5" style="enable-background:new 0 0 57.8 46.5;" xml:space="preserve">
<style type="text/css">
	.st0{fill:none;}
	.st1{fill:none;stroke:#000000;stroke-width:0.5;stroke-linecap:round;stroke-linejoin:round;stroke-miterlimit:10;}
</style>
<g>
	<path class="st0" d="M53.7,4.9H23.4c-1.5,0-2.3-1.1-2.9-2.1c-0.8-1.1-1.5-2.3-3.4-2.3h-13c-2,0-3.6,2.1-3.6,4.8v5.8
		c0.7-1.3,2-2.3,3.6-2.3h49.6c1.6,0,2.9,0.9,3.6,2.3V9.6C57.3,7,55.7,4.9,53.7,4.9z"/>
	<path d="M53.7,4.4H23.4c-1.3,0-1.9-0.9-2.5-1.9C20.1,1.3,19.2,0,17.1,0h-13C1.8,0,0,2.4,0,5.2V13v0.7v28.6c0,2.3,1.8,4.2,4.1,4.2
		h49.6c2.3,0,4.1-1.9,4.1-4.2V14v-0.8V9.7C57.8,6.8,56,4.4,53.7,4.4z M57.3,14v28.3c0,2.1-1.6,3.7-3.6,3.7H4.1c-2,0-3.6-1.7-3.6-3.7
		V13.9v-0.7c0-2.1,1.6-3.7,3.6-3.7h49.6c2,0,3.6,1.7,3.6,3.7V14z M57.3,11.2c-0.7-1.3-2-2.3-3.6-2.3H4.1c-1.6,0-2.9,0.9-3.6,2.3V5.3
		c0-2.6,1.6-4.8,3.6-4.8h13c1.9,0,2.7,1.1,3.4,2.3c0.7,1,1.4,2.1,2.9,2.1h30.3c2,0,3.6,2.1,3.6,4.8V11.2z"/>
</g>
<g>
	<polygon class="st1" points="28.9,16.8 31.6,24.8 40.3,24.8 33.3,29.8 36,37.8 28.9,32.8 21.8,37.8 24.5,29.8 17.5,24.8 26.2,24.8 
			"/>
</g>
</svg>
