<?xml version="1.0" encoding="utf-8"?>
<!-- Generator: Adobe Illustrator 21.0.2, SVG Export Plug-In . SVG Version: 6.00 Build 0)  -->
<svg version="1.1" id="Calque_1" xmlns="http://www.w3.org/2000/svg" xmlns:xlink="http://www.w3.org/1999/xlink" x="0px" y="0px"
	 viewBox="0 0 100 125" style="enable-background:new 0 0 100 125;" xml:space="preserve">
<path d="M50,24.1c-22.3,0-41.1,11-46.6,25.9C8.9,64.9,27.7,75.9,50,75.9s41.1-11,46.6-25.9C91.1,35.1,72.3,24.1,50,24.1z M50,67.5
	c-9.7,0-17.5-7.8-17.5-17.5S40.3,32.5,50,32.5c9.7,0,17.5,7.8,17.5,17.5S59.7,67.5,50,67.5z M50,43.2c-3.7,0-6.8,3-6.8,6.8
	s3,6.8,6.8,6.8s6.8-3,6.8-6.8S53.7,43.2,50,43.2z"/>
</svg>
