<?xml version="1.0" encoding="utf-8"?>
<!-- Generator: Adobe Illustrator 21.0.2, SVG Export Plug-In . SVG Version: 6.00 Build 0)  -->
<svg version="1.1" id="Calque_1" xmlns="http://www.w3.org/2000/svg" xmlns:xlink="http://www.w3.org/1999/xlink" x="0px" y="0px"
	 viewBox="0 0 480 128.3" style="enable-background:new 0 0 480 128.3;" xml:space="preserve">
<style type="text/css">
	.st0{fill:none;stroke:#6AC662;stroke-width:2;}
	.st1{enable-background:new    ;}
</style>
<title>doctorapp</title>
<desc>Created with Sketch.</desc>
<g id="desktop">
	<g id="Connexion" transform="translate(-386.000000, -52.000000)">
		<g id="doctorapp" transform="translate(380.000000, 51.000000)">
			<g id="Calque_1_1_" transform="translate(235.000000, 6.000000)">
				<polyline id="Shape" class="st0" points="6.1,76.2 22.9,76.2 38.4,-4.8 55.1,76.2 78.3,76.2 92.5,61.2 92.5,123.2 101.5,54.2 
					123.4,76.2 149.2,76.2 163.4,61.2 163.4,123.2 				"/>
				<polyline id="Shape_1_" class="st0" points="163.4,123.2 172.4,54.2 194.3,76.2 251,76.2 				"/>
				<path id="Shape_2_" class="st0" d="M6.1,80.2l244.9-1"/>
			</g>
			<g class="st1">
				<path d="M12.6,81.4V22.1c0-0.6,0.2-1.1,0.7-1.5c0.5-0.4,1.1-0.6,1.9-0.6h15.4c5.5,0,9.9,1.5,13.2,4.5c3.3,3,5,7.7,5,14V65
					c0,6.4-1.7,11.2-5,14.1c-3.3,3-7.7,4.5-13.2,4.5H15.2c-0.8,0-1.4-0.2-1.9-0.7C12.9,82.5,12.6,82,12.6,81.4z M18.4,78.3h12.3
					c3.9,0,7-1.1,9.2-3.3c2.2-2.2,3.3-5.6,3.3-10V38.5c0-4.4-1.1-7.7-3.3-9.9c-2.2-2.2-5.2-3.3-9.2-3.3H18.4V78.3z"/>
				<path d="M58.5,67.7v-9.5c0-4.4,1.6-8.2,4.9-11.4c3.2-3.2,7.1-4.8,11.6-4.8c4.5,0,8.4,1.6,11.7,4.8c3.3,3.2,5,7,5,11.5v9.5
					c0,4.3-1.7,8.2-5,11.5c-3.3,3.3-7.2,5-11.6,5c-4.4,0-8.2-1.7-11.5-5C60.2,75.9,58.5,72,58.5,67.7z M64.2,67.7
					c0,2.9,1.1,5.6,3.2,7.8c2.1,2.3,4.7,3.4,7.6,3.4c3,0,5.6-1.1,7.7-3.4c2.1-2.3,3.2-4.9,3.2-7.8v-9.4c0-2.8-1.1-5.4-3.3-7.6
					c-2.2-2.2-4.7-3.4-7.7-3.4s-5.5,1.1-7.6,3.4c-2.1,2.2-3.2,4.8-3.2,7.6V67.7z"/>
				<path d="M99.4,67.7v-9.3c0-4.9,1.4-8.8,4.3-11.9c2.8-3,7-4.6,12.5-4.6c3.5,0,6.4,0.6,8.7,1.9c2.3,1.2,3.5,2.5,3.5,3.8
					c0,0.6-0.3,1.3-0.8,1.9s-1.1,0.9-1.7,0.9c-0.3,0-0.9-0.3-1.6-0.8c-0.7-0.5-1.8-1-3.1-1.6c-1.3-0.5-2.9-0.8-4.8-0.8
					c-3.7,0-6.5,1-8.5,2.9c-1.9,2-2.9,4.7-2.9,8.2v9.3c0,3.6,1,6.3,2.9,8.3c1.9,2,4.8,2.9,8.6,2.9c2,0,3.6-0.3,5-0.8
					c1.4-0.5,2.4-1.1,3.1-1.6c0.7-0.5,1.3-0.8,1.7-0.8c0.8,0,1.4,0.3,1.9,0.9c0.5,0.6,0.7,1.2,0.7,1.9c0,1.3-1.2,2.6-3.7,3.9
					c-2.4,1.2-5.5,1.9-9,1.9c-5.6,0-9.8-1.5-12.6-4.5C100.9,76.7,99.4,72.7,99.4,67.7z"/>
				<path d="M136.5,70.8V25c0-0.6,0.3-1.1,0.9-1.5c0.6-0.4,1.2-0.6,1.9-0.6c0.8,0,1.4,0.2,2,0.6c0.6,0.4,0.9,0.9,0.9,1.5v17.4h11.2
					c0.6,0,1.1,0.2,1.4,0.7c0.4,0.5,0.6,1,0.6,1.7c0,0.7-0.2,1.2-0.6,1.7c-0.4,0.5-0.9,0.7-1.4,0.7h-11.2v23.5
					c0,2.8,0.6,4.8,1.8,5.9c1.2,1.1,3.3,1.7,6.3,1.7h2.4c0.8,0,1.4,0.3,1.9,0.8c0.5,0.5,0.7,1.1,0.7,1.8c0,0.7-0.2,1.3-0.7,1.9
					c-0.5,0.5-1.1,0.8-1.9,0.8h-2.4C141.1,83.6,136.5,79.3,136.5,70.8z"/>
				<path d="M160.1,67.7v-9.5c0-4.4,1.6-8.2,4.9-11.4c3.2-3.2,7.1-4.8,11.6-4.8c4.5,0,8.4,1.6,11.7,4.8c3.3,3.2,5,7,5,11.5v9.5
					c0,4.3-1.7,8.2-5,11.5c-3.3,3.3-7.2,5-11.6,5c-4.4,0-8.2-1.7-11.5-5C161.7,75.9,160.1,72,160.1,67.7z M165.7,67.7
					c0,2.9,1.1,5.6,3.2,7.8c2.1,2.3,4.7,3.4,7.6,3.4c3,0,5.6-1.1,7.7-3.4c2.1-2.3,3.2-4.9,3.2-7.8v-9.4c0-2.8-1.1-5.4-3.3-7.6
					c-2.2-2.2-4.7-3.4-7.7-3.4s-5.5,1.1-7.6,3.4c-2.1,2.2-3.2,4.8-3.2,7.6V67.7z"/>
				<path d="M202.4,81.3V44.5c0-0.6,0.3-1.1,0.8-1.5c0.5-0.4,1.2-0.6,2-0.6c0.8,0,1.4,0.2,1.9,0.6c0.5,0.4,0.8,0.9,0.8,1.5v4.3
					c1-1.9,2.6-3.6,4.6-4.9c2-1.3,4.4-2,7-2h3c0.6,0,1.1,0.3,1.6,0.8c0.5,0.5,0.7,1.1,0.7,1.9c0,0.7-0.2,1.3-0.7,1.9
					c-0.5,0.5-1,0.8-1.6,0.8h-3c-3,0-5.7,1.2-8,3.5c-2.3,2.3-3.5,5.4-3.5,9.2v21.4c0,0.6-0.3,1.1-0.8,1.6c-0.6,0.5-1.2,0.7-2,0.7
					c-0.8,0-1.4-0.2-2-0.7C202.7,82.4,202.4,81.9,202.4,81.3z"/>
				<path d="M228.2,23.1c0-1.1,0.4-2,1.1-2.8c0.7-0.8,1.7-1.2,2.7-1.2c1.1,0,2,0.4,2.7,1.2c0.7,0.8,1.1,1.7,1.1,2.8
					c0,1.3-1.1,4.6-3.3,9.8c-0.3,0.7-0.8,1-1.5,1c-0.6,0-1-0.2-1.5-0.5c-0.4-0.3-0.6-0.8-0.6-1.3c0-0.3,0.1-0.6,0.2-0.8l1.7-4.5
					c-0.8-0.3-1.4-0.8-1.9-1.5S228.2,24,228.2,23.1z"/>
			</g>
		</g>
	</g>
</g>
</svg>
