<?xml version="1.0" encoding="utf-8"?>
<!-- Generator: Adobe Illustrator 21.0.2, SVG Export Plug-In . SVG Version: 6.00 Build 0)  -->
<svg version="1.1" id="Calque_1" xmlns="http://www.w3.org/2000/svg" xmlns:xlink="http://www.w3.org/1999/xlink" x="0px" y="0px"
	 viewBox="0 0 33 49" style="enable-background:new 0 0 33 49;" xml:space="preserve">
<g>
	<g>
		<path d="M32.5,0h-32C0.2,0,0,0.2,0,0.5v46C0,46.8,0.2,47,0.5,47H4v1.5C4,48.8,4.2,49,4.5,49S5,48.8,5,48.5V47h23v1.5
			c0,0.3,0.2,0.5,0.5,0.5s0.5-0.2,0.5-0.5V47h3.5c0.3,0,0.5-0.2,0.5-0.5v-46C33,0.2,32.8,0,32.5,0z M1,17h31v13H1V17z M32,1v15H1V1
			H32z M1,46V31h31v15H1z"/>
		<path d="M14.5,7h4C18.8,7,19,6.8,19,6.5S18.8,6,18.5,6h-4C14.2,6,14,6.2,14,6.5S14.2,7,14.5,7z"/>
		<path d="M18.5,20h-4c-0.3,0-0.5,0.2-0.5,0.5s0.2,0.5,0.5,0.5h4c0.3,0,0.5-0.2,0.5-0.5S18.8,20,18.5,20z"/>
		<path d="M18.5,34h-4c-0.3,0-0.5,0.2-0.5,0.5s0.2,0.5,0.5,0.5h4c0.3,0,0.5-0.2,0.5-0.5S18.8,34,18.5,34z"/>
	</g>
</g>
</svg>
