<?xml version="1.0" encoding="utf-8"?>
<!-- Generator: Adobe Illustrator 21.0.2, SVG Export Plug-In . SVG Version: 6.00 Build 0)  -->
<svg version="1.1" id="Calque_1" xmlns="http://www.w3.org/2000/svg" xmlns:xlink="http://www.w3.org/1999/xlink" x="0px" y="0px"
	 viewBox="0 0 56.4 59" style="enable-background:new 0 0 56.4 59;" xml:space="preserve">
<style type="text/css">
	.st0{fill:#6AC761;}
</style>
<title>revision</title>
<desc>Created with Sketch.</desc>
<g id="desktop">
	<g id="Articles-Détail" transform="translate(-95.000000, -578.000000)">
		<g id="Group-2" transform="translate(95.000000, 578.000000)">
			<g id="noun_946948_cc">
				<g id="revision">
					<g id="Group">
						<path id="Shape" class="st0" d="M55.2,36.3L55.2,36.3v-30c0-1.4-1.2-2.6-2.6-2.6h-0.2l-0.1-0.2c-0.5-2.4-2.9-3.9-5.3-3.4
							c-1.7,0.4-3,1.7-3.4,3.4v0.2h-1.4V3.5c-0.5-2.4-2.9-3.9-5.3-3.4c-1.7,0.4-3,1.7-3.4,3.4v0.2H32V3.5c-0.5-2.4-2.9-3.9-5.3-3.4
							c-1.7,0.4-3,1.7-3.4,3.4v0.2h-1.4V3.5c-0.5-2.4-2.9-3.9-5.3-3.4c-1.7,0.4-3,1.7-3.4,3.4v0.2h-1.4V3.5
							c-0.5-2.4-2.9-3.9-5.3-3.4c-1.7,0.4-3,1.7-3.4,3.4v0.2H2.6C1.2,3.7,0,4.8,0,6.3l0,0v36.1C0,43.8,1.2,45,2.6,45h21.3v0.2
							c1.4,8.9,9.8,15,18.7,13.6c8-1.3,13.8-8.1,13.8-16.2C56.5,40.5,56.1,38.3,55.2,36.3z M45.2,3.4c0.6-1.5,2.3-2.3,3.8-1.7
							c0.8,0.3,1.4,0.9,1.7,1.7l0.1,0.3H45L45.2,3.4z M35,3.4c0.6-1.5,2.3-2.3,3.8-1.7c0.8,0.3,1.4,0.9,1.7,1.7l0.1,0.3h-5.8L35,3.4
							z M24.9,3.4c0.6-1.5,2.3-2.3,3.8-1.7C29.4,2,30,2.6,30.3,3.4l0.1,0.3h-5.8L24.9,3.4z M14.7,3.4c0.6-1.5,2.3-2.3,3.8-1.7
							c0.8,0.3,1.4,0.9,1.7,1.7l0.1,0.3h-5.8L14.7,3.4z M4.5,3.4c0.6-1.5,2.3-2.3,3.8-1.7C9.1,2,9.7,2.6,10,3.4l0.1,0.3H4.4L4.5,3.4
							z M1.5,6.3c0-0.6,0.5-1.1,1.1-1.1h7.5L10,5.5C9.5,6.7,8.4,7.4,7.2,7.4c-0.4,0-0.7,0.3-0.7,0.8c0,0.4,0.3,0.7,0.7,0.7
							c2.1,0,3.9-1.5,4.3-3.5V5.2h8.7l-0.1,0.3c-0.4,1.1-1.5,1.9-2.7,1.9c-0.4,0-0.8,0.3-0.8,0.8c0,0.4,0.3,0.8,0.8,0.8
							c2.1,0,3.9-1.5,4.3-3.5V5.3h8.7l-0.1,0.3c-0.4,1.1-1.5,1.9-2.7,1.9c-0.4,0-0.8,0.3-0.8,0.8c0,0.4,0.3,0.8,0.8,0.8
							c2.1,0,3.9-1.5,4.3-3.5V5.4h8.7l-0.1,0.3c-0.4,1.1-1.5,1.9-2.7,1.9c-0.4,0-0.8,0.3-0.8,0.8c0,0.4,0.3,0.8,0.8,0.8
							c2.1,0,3.9-1.5,4.3-3.5V5.5h8.7l-0.1,0.3c-0.4,1.1-1.5,1.9-2.7,1.9c-0.4,0-0.8,0.3-0.8,0.8c0,0.4,0.3,0.8,0.8,0.8
							c2.1,0,3.9-1.5,4.3-3.5V5.6h0.2c0.6,0,1.1,0.5,1.1,1.1l0,0V13H1.5V6.3z M23.7,42.7V43v0.3v0.3H2.6c-0.6,0-1.1-0.5-1.1-1.1v-28
							h52.2v19l-0.5-0.6c-5.4-7.3-15.6-8.8-22.9-3.4C26.2,32.6,23.7,37.5,23.7,42.7L23.7,42.7z M54.9,44.4
							c-0.9,8.2-8.3,14-16.5,13.1c-7.3-0.8-12.9-6.9-13.2-14.2v-0.2v-0.4c0-8.2,6.7-14.9,14.9-14.9c5.9,0,11.2,3.4,13.6,8.8
							c0.9,1.9,1.3,4,1.3,6.1C55,43.2,55,43.8,54.9,44.4L54.9,44.4z"/>
						<path id="Shape_1_" class="st0" d="M51.2,39.7l-10.7,2.1l-3-5.1c-0.1-0.2-0.3-0.3-0.5-0.3h-0.2c-0.4,0-0.7,0.3-0.7,0.8
							c0,0.1,0,0.3,0.1,0.4l3.3,5.6l0.1,0.1h0.1l0.1,0.1h0.1h0.2l0,0h0.1l11.2-2.2c0.4-0.1,0.7-0.5,0.6-0.9
							C52,39.9,51.6,39.6,51.2,39.7L51.2,39.7z"/>
						<path id="Shape_2_" class="st0" d="M10,16.7H4.5c-0.4,0-0.7,0.3-0.8,0.8v5.3c0,0.4,0.3,0.7,0.8,0.8H10c0.4,0,0.7-0.3,0.8-0.8
							v-5.3C10.7,17,10.4,16.7,10,16.7z M9.2,21.9h-4v-3.8h4V21.9z"/>
						<path id="Shape_3_" class="st0" d="M20.2,16.7h-5.5c-0.4,0-0.7,0.3-0.8,0.8v5.3c0,0.4,0.3,0.7,0.8,0.8h5.5
							c0.4,0,0.7-0.3,0.8-0.8v-5.3C20.9,17,20.6,16.7,20.2,16.7z M19.4,21.9h-4v-3.8h4V21.9z"/>
						<path id="Shape_4_" class="st0" d="M31.1,22.7v-5.3c0-0.4-0.3-0.7-0.8-0.8h-5.5c-0.4,0-0.7,0.3-0.8,0.8v5.3
							c0,0.4,0.3,0.7,0.8,0.8h5.5C30.8,23.4,31.1,23.1,31.1,22.7z M29.6,21.9h-4v-3.8h4V21.9z"/>
						<path id="Shape_5_" class="st0" d="M35,23.4h5.5c0.4,0,0.7-0.3,0.8-0.8v-5.3c0-0.4-0.3-0.7-0.8-0.8H35c-0.4,0-0.7,0.3-0.8,0.8
							v5.3C34.2,23.1,34.6,23.4,35,23.4z M35.7,18.2h4V22h-4V18.2z"/>
						<path id="Shape_6_" class="st0" d="M45,23.4h5.5c0.4,0,0.7-0.3,0.8-0.8v-5.3c0-0.4-0.3-0.7-0.8-0.8H45c-0.4,0-0.7,0.3-0.8,0.8
							v5.3C44.2,23.1,44.6,23.4,45,23.4z M45.7,18.2h4V22h-4V18.2z"/>
						<path id="Shape_7_" class="st0" d="M10,25.7H4.5c-0.4,0-0.7,0.3-0.8,0.8v5.3c0,0.4,0.3,0.7,0.8,0.8H10c0.4,0,0.7-0.3,0.8-0.8
							v-5.3C10.7,26,10.4,25.7,10,25.7z M9.2,30.9h-4v-3.8h4V30.9z"/>
						<path id="Shape_8_" class="st0" d="M20.2,25.7h-5.5c-0.4,0-0.7,0.3-0.8,0.8v5.3c0,0.4,0.3,0.7,0.8,0.8h5.5
							c0.4,0,0.7-0.3,0.8-0.8v-5.3C20.9,26,20.6,25.7,20.2,25.7z M19.4,30.9h-4v-3.8h4V30.9z"/>
						<path id="Shape_9_" class="st0" d="M10,34.4H4.5c-0.4,0-0.7,0.3-0.8,0.8v5.3c0,0.4,0.3,0.7,0.8,0.8H10c0.4,0,0.7-0.3,0.8-0.8
							v-5.3C10.7,34.8,10.4,34.4,10,34.4z M9.2,39.7h-4v-3.8h4V39.7z"/>
						<path id="Shape_10_" class="st0" d="M20.2,34.4h-5.5c-0.4,0-0.7,0.3-0.8,0.8v5.3c0,0.4,0.3,0.7,0.8,0.8h5.5
							c0.4,0,0.7-0.3,0.8-0.8v-5.3C20.9,34.8,20.6,34.4,20.2,34.4z M19.4,39.7h-4v-3.8h4V39.7z"/>
					</g>
				</g>
			</g>
		</g>
	</g>
</g>
</svg>
