<?xml version="1.0" encoding="utf-8"?>
<!-- Generator: Adobe Illustrator 21.0.2, SVG Export Plug-In . SVG Version: 6.00 Build 0)  -->
<svg version="1.1"
	 id="Calque_1" xmlns:cc="http://creativecommons.org/ns#" xmlns:dc="http://purl.org/dc/elements/1.1/" xmlns:inkscape="http://www.inkscape.org/namespaces/inkscape" xmlns:rdf="http://www.w3.org/1999/02/22-rdf-syntax-ns#" xmlns:sodipodi="http://sodipodi.sourceforge.net/DTD/sodipodi-0.dtd" xmlns:svg="http://www.w3.org/2000/svg"
	 xmlns="http://www.w3.org/2000/svg" xmlns:xlink="http://www.w3.org/1999/xlink" x="0px" y="0px" viewBox="0 0 70 70"
	 style="enable-background:new 0 0 70 70;" xml:space="preserve">
<g transform="translate(0,-952.36218)">
	<path d="M29,952.4c-16,0-29,13-29,29s13,29,29,29c7.6,0,14.6-3,19.8-7.8l19.5,19.5c0.4,0.4,1,0.4,1.4,0s0.4-1,0-1.4l-19.5-19.5
		C55,996,58,989,58,981.4C58,965.4,45,952.4,29,952.4L29,952.4z M29,954.4c14.9,0,27,12.1,27,27s-12.1,27-27,27s-27-12.1-27-27
		C2,966.4,14.1,954.4,29,954.4z"/>
</g>
</svg>
